<?xml version="1.0" encoding="UTF-8" standalone="no"?>
<svg
   xmlns:dc="http://purl.org/dc/elements/1.1/"
   xmlns:cc="http://creativecommons.org/ns#"
   xmlns:rdf="http://www.w3.org/1999/02/22-rdf-syntax-ns#"
   xmlns:svg="http://www.w3.org/2000/svg"
   xmlns="http://www.w3.org/2000/svg"
   xmlns:sodipodi="http://sodipodi.sourceforge.net/DTD/sodipodi-0.dtd"
   xmlns:inkscape="http://www.inkscape.org/namespaces/inkscape"
   width="500pt"
   height="500pt"
   viewBox="0 0 500 500"
   version="1.1"
   id="svg3270"
   inkscape:version="0.48.5 r10040"
   sodipodi:docname="cmc-logo.svg">
  <metadata
     id="metadata3300">
    <rdf:RDF>
      <cc:Work
         rdf:about="">
        <dc:format>image/svg+xml</dc:format>
        <dc:type
           rdf:resource="http://purl.org/dc/dcmitype/StillImage" />
      </cc:Work>
    </rdf:RDF>
  </metadata>
  <defs
     id="defs3298" />
  <sodipodi:namedview
     pagecolor="#ffffff"
     bordercolor="#666666"
     borderopacity="1"
     objecttolerance="10"
     gridtolerance="10"
     guidetolerance="10"
     inkscape:pageopacity="0"
     inkscape:pageshadow="2"
     inkscape:window-width="3070"
     inkscape:window-height="1752"
     id="namedview3296"
     showgrid="false"
     inkscape:zoom="1.5104"
     inkscape:cx="411.58554"
     inkscape:cy="235.02981"
     inkscape:window-x="130"
     inkscape:window-y="48"
     inkscape:window-maximized="1"
     inkscape:current-layer="svg3270" />
  <path
     fill="#0777cf"
     d=" M 217.69 36.74 C 238.08 24.47 261.43 17.34 285.12 15.52 C 328.71 12.23 373.35 28.89 404.23 59.81 C 435.58 89.71 453.52 132.57 454.76 175.70 C 452.04 170.26 449.63 164.66 446.58 159.40 C 444.14 155.07 441.14 150.99 439.73 146.17 C 433.77 127.28 422.67 110.28 408.85 96.20 C 377.96 65.82 333.96 50.56 290.97 51.87 C 265.66 52.70 240.37 58.92 217.99 70.88 C 186.21 87.28 160.27 116.19 150.80 151.03 C 148.64 157.75 148.75 165.13 145.39 171.46 C 142.30 177.97 140.01 184.81 137.40 191.52 C 134.77 148.07 149.03 103.56 177.57 70.52 C 189.10 57.30 202.48 45.58 217.69 36.74 Z"
     id="path3274" />
  <path
     fill="#0777cf"
     d=" M 90.33 61.25 C 123.24 29.38 171.02 13.07 216.49 19.52 C 202.64 26.28 189.58 34.74 178.20 45.16 C 174.10 49.08 170.18 53.18 166.18 57.21 C 164.19 59.43 160.99 59.55 158.30 60.29 C 122.66 68.44 89.05 88.78 68.37 119.34 C 56.03 137.47 48.52 159.02 47.86 180.99 C 46.35 221.28 68.49 260.11 101.03 283.00 C 135.30 307.75 179.51 317.50 221.17 311.47 C 251.55 307.18 280.97 294.54 304.04 274.16 C 324.90 255.93 339.63 230.71 344.70 203.43 C 347.95 203.30 350.92 205.03 353.96 205.95 C 354.02 210.00 353.39 214.00 352.50 217.94 C 346.10 249.40 331.01 279.39 308.25 302.19 C 282.38 329.38 246.26 346.56 208.81 349.39 C 169.41 352.66 129.03 339.55 98.70 314.24 C 65.02 286.66 43.44 245.27 39.13 202.04 C 33.37 150.65 52.39 96.66 90.33 61.25 Z"
     id="path3276" />
  <path
     d=" M 276.80 83.80 C 308.62 78.87 341.84 84.89 370.33 99.77 C 407.29 119.18 435.80 153.54 448.87 193.12 C 454.26 209.10 457.28 225.90 457.74 242.75 C 454.89 236.85 452.22 230.85 448.88 225.20 C 446.96 221.77 444.54 218.58 443.28 214.82 C 436.59 193.09 423.54 173.48 406.66 158.33 C 372.29 127.81 324.26 114.49 278.92 120.02 C 243.54 124.07 209.18 139.64 184.17 165.21 C 168.46 181.87 156.67 202.53 152.13 225.09 C 151.29 229.11 150.98 233.32 149.02 237.01 C 145.67 243.94 143.24 251.25 140.42 258.40 C 137.63 213.35 153.26 167.20 183.80 133.82 C 187.42 130.13 191.09 126.48 194.77 122.85 C 217.50 102.18 246.34 88.16 276.80 83.80 Z"
     id="path3278"
     fill="#0777cf" />
  <path
     fill="#0777cf"
     d=" M 60.60 171.56 C 77.45 139.15 105.39 112.33 139.05 97.89 C 133.03 111.38 128.39 125.47 125.61 139.98 C 115.11 145.23 105.13 151.57 96.16 159.16 C 81.11 171.20 69.51 187.12 61.02 204.32 C 58.90 193.64 56.26 182.02 60.60 171.56 Z"
     id="path3280" />
  <path
     fill="#0777cf"
     d=" M 191.32 196.26 C 219.84 166.45 260.79 149.08 302.02 149.11 C 338.31 149.09 374.35 162.54 401.94 186.11 C 412.98 195.72 423.10 206.50 431.31 218.66 C 451.15 247.65 461.45 282.91 460.88 317.99 C 460.17 355.60 447.02 393.05 423.17 422.25 C 405.77 443.49 383.12 460.58 357.42 470.45 C 333.72 479.51 307.71 483.16 282.53 479.50 C 296.37 472.72 309.41 464.22 320.83 453.84 C 325.37 449.38 329.88 444.91 334.26 440.30 C 369.01 433.25 402.52 415.72 424.75 387.61 C 437.80 371.34 446.85 351.73 449.91 331.05 C 453.07 311.50 450.38 291.22 443.14 272.85 C 436.50 256.22 426.09 241.18 413.31 228.68 C 382.71 199.57 339.94 184.78 297.99 185.86 C 276.29 186.35 254.65 191.03 234.71 199.67 C 213.39 209.07 193.74 222.99 179.28 241.39 C 166.53 257.01 158.07 275.89 154.28 295.65 C 151.11 295.50 148.02 294.34 145.23 292.89 C 144.71 289.25 145.61 285.63 146.31 282.08 C 152.61 249.97 168.03 219.39 191.32 196.26 Z"
     id="path3282" />
  <path
     fill="#0777cf"
     d=" M 72.09 224.04 C 85.23 204.31 102.49 187.22 122.78 174.91 C 122.97 186.02 124.51 197.08 126.62 207.99 C 116.01 213.42 106.06 220.13 97.05 227.93 C 90.43 233.11 85.15 239.66 79.65 245.94 C 76.28 240.99 73.01 235.94 70.41 230.54 C 68.89 228.25 70.96 225.96 72.09 224.04 Z"
     id="path3284" />
  <path
     fill="#0777cf"
     d=" M 244.44 215.50 C 260.78 212.71 277.94 223.74 282.38 239.68 C 287.73 255.72 278.67 274.69 263.06 280.99 C 249.43 287.37 232.11 282.80 222.84 271.11 C 215.48 262.06 212.94 249.14 217.15 238.15 C 221.09 226.26 232.12 217.37 244.44 215.50 Z"
     id="path3286" />
  <path
     fill="#0777cf"
     d=" M 350.03 261.85 C 353.33 254.91 355.86 247.65 358.60 240.48 C 361.14 282.25 348.07 324.98 321.69 357.59 C 311.15 370.43 298.91 381.97 285.00 391.11 C 251.97 413.17 210.15 421.89 171.15 414.07 C 135.92 407.50 103.64 387.83 80.71 360.43 C 56.16 331.59 42.37 294.08 41.23 256.32 C 44.75 263.53 48.09 270.85 52.41 277.64 C 55.86 282.74 56.98 288.90 59.40 294.49 C 66.83 312.30 78.45 328.38 92.91 341.14 C 123.38 368.02 164.59 381.32 204.96 380.14 C 235.66 379.21 266.30 370.09 291.85 352.89 C 318.37 335.37 338.90 308.16 346.21 277.02 C 347.54 271.98 347.62 266.56 350.03 261.85 Z"
     id="path3288" />
  <path
     fill="#0777cf"
     d=" M 419.33 253.04 C 422.72 257.97 425.96 263.04 428.57 268.44 C 430.09 271.01 427.77 273.47 426.54 275.59 C 413.35 294.94 396.42 312.05 376.20 324.01 C 376.04 312.92 374.48 301.89 372.36 291.02 C 390.36 281.73 406.75 268.99 419.33 253.04 Z"
     id="path3290" />
  <path
     fill="#0777cf"
     d=" M 410.32 333.32 C 421.75 322.20 431.01 308.99 437.96 294.66 C 440.11 305.33 442.78 316.96 438.40 327.41 C 421.58 359.83 393.64 386.72 359.95 401.10 C 365.97 387.66 370.55 373.59 373.38 359.14 C 386.84 352.34 399.34 343.65 410.32 333.32 Z"
     id="path3292" />
  <path
     fill="#0777cf"
     d=" M 353.00 328.99 C 356.28 322.01 358.89 314.75 361.56 307.53 C 364.11 348.37 351.58 390.10 326.41 422.43 C 303.90 451.43 271.36 472.79 235.30 480.36 C 198.15 488.71 158.07 481.98 125.33 462.67 C 108.06 452.62 92.95 439.07 80.45 423.53 C 58.00 395.17 45.26 359.38 44.27 323.27 C 47.75 330.76 51.35 338.21 55.77 345.21 C 59.03 350.15 60.06 356.09 62.37 361.46 C 70.63 380.99 83.65 398.58 100.26 411.79 C 130.22 436.32 169.51 448.23 208.00 447.14 C 247.66 446.01 287.40 430.83 315.86 402.80 C 332.22 386.23 344.58 365.37 349.54 342.49 C 350.61 337.97 350.83 333.18 353.00 328.99 Z"
     id="path3294" />
</svg>
