<?xml version="1.0" encoding="UTF-8" standalone="no"?>
<svg
   xmlns:dc="http://purl.org/dc/elements/1.1/"
   xmlns:cc="http://creativecommons.org/ns#"
   xmlns:rdf="http://www.w3.org/1999/02/22-rdf-syntax-ns#"
   xmlns:svg="http://www.w3.org/2000/svg"
   xmlns="http://www.w3.org/2000/svg"
   xmlns:sodipodi="http://sodipodi.sourceforge.net/DTD/sodipodi-0.dtd"
   xmlns:inkscape="http://www.inkscape.org/namespaces/inkscape"
   width="500pt"
   height="500pt"
   viewBox="0 0 500 500"
   version="1.1"
   id="svg2"
   inkscape:version="0.48.5 r10040"
   sodipodi:docname="phys-logo.svg">
  <metadata
     id="metadata28">
    <rdf:RDF>
      <cc:Work
         rdf:about="">
        <dc:format>image/svg+xml</dc:format>
        <dc:type
           rdf:resource="http://purl.org/dc/dcmitype/StillImage" />
      </cc:Work>
    </rdf:RDF>
  </metadata>
  <defs
     id="defs26" />
  <sodipodi:namedview
     pagecolor="#ffffff"
     bordercolor="#666666"
     borderopacity="1"
     objecttolerance="10"
     gridtolerance="10"
     guidetolerance="10"
     inkscape:pageopacity="0"
     inkscape:pageshadow="2"
     inkscape:window-width="3070"
     inkscape:window-height="1752"
     id="namedview24"
     showgrid="false"
     inkscape:zoom="4"
     inkscape:cx="360.59242"
     inkscape:cy="410.24454"
     inkscape:window-x="130"
     inkscape:window-y="48"
     inkscape:window-maximized="1"
     inkscape:current-layer="svg2" />
  <path
     d="m 237.28,10.4 c 13.7,-0.09 27.49,-0.68 41.09,1.35 50.94,6.02 100.11,28.14 137.61,63.29 5.53,5.11 11.3,10.12 15.57,16.37 24.54,27.55 42.82,60.66 52.88,96.17 7.09,26.11 10.47,53.41 8.47,80.45 -1.92,26.58 -7.92,52.91 -18.38,77.45 -14.61,34.87 -37.6,66.17 -66.36,90.69 -33.88,29.13 -75.97,48.72 -120.17,55.45 -16.8,3.17 -33.97,2.93 -51,2.64 C 211.94,492.7 187.1,487.38 163.69,478.3 119.64,461.25 80.77,431.07 53.35,392.6 29.89,359.84 14.65,321.2 9.88,281.17 8.81,268.78 7.6,256.36 8.26,243.91 9.27,232.23 9.59,220.43 12.15,208.94 18.31,174.88 32.16,142.28 52.06,113.97 77,78.21 111.83,49.48 151.54,31.52 178.52,19.28 207.75,12.33 237.28,10.4 z"
     id="path6"
     sodipodi:insensitive="true"
     inkscape:connector-curvature="0"
     style="fill:#0462af" />
  <path
     style="fill:#fcfdfe"
     d="m 190.05,44 c -0.74,1.67 -1.6,3.35 -2.25,5.05 0.79,1.21 1.46,2.72 2.05,4.05 -1.25,-0.71 -3.035,-0.995 -3.625,-2.475 0.08,-2.16 1.015,-4.54 -0.275,-6.55 -0.98,2.05 -2.585,4.435 -1.775,6.825 0.6,2.49 3.075,3.71 4.975,5.1 -0.22,1.3 -0.545,2.57 -0.575,3.9 -0.25,10.47 -1.18,20.9 -1.7,31.35 -0.71,0.71 -1.415,1.44 -2.125,2.15 0.37,2.29 0.76,4.57 1.2,6.85 -1.52,0.94 -3.04,1.885 -4.55,2.825 -0.08,1.89 -0.145,3.775 -0.175,5.675 -2.09,4.27 -6.33,9.315 -3.15,14.125 0.18,3.47 0.14,6.97 0.15,10.45 -1.23,0.5 -2.47,1 -3.7,1.5 -0.17,0.57 -0.505,1.73 -0.675,2.3 -0.55,0.31 -1.65,0.93 -2.2,1.25 -0.28,2.03 -0.49,4.075 -0.65,6.125 -0.35,0.41 -1.05,1.23 -1.4,1.65 -0.05,9.27 -0.02,18.555 0,27.825 0.11,1.45 -0.16,2.895 -1.2,3.975 -1.03,-3.47 -1.71,-7.02 -1.7,-10.65 -1.37,-0.46 -2.74,-0.94 -4.1,-1.4 0.6,2.18 1.01,4.41 1.3,6.65 -0.67,0.25 -1.99,0.735 -2.65,0.975 -0.04,1.11 -0.095,2.23 -0.125,3.35 -0.55,0.44 -1.635,1.335 -2.175,1.775 0.33,1.22 0.82,2.38 1.4,3.5 -1.66,1.05 -3.19,2.33 -4.65,3.65 l -5.275,0.075 c -0.58,0.91 -1.155,1.83 -1.725,2.75 1.93,7.66 0.485,15.665 0.925,23.475 13.48334,0.0103 26.96666,1.3e-4 40.45,0 13.48341,1.3e-4 26.96659,0.0102 40.45,0 0.44,-7.81 -1.00501,-15.815 0.925,-23.475 -0.57,-0.92 -1.145,-1.84 -1.725,-2.75 L 224.45,185.8 c -1.46001,-1.32 -2.98999,-2.6 -4.65,-3.65 0.58001,-1.12 1.07,-2.28 1.4,-3.5 -0.54,-0.44 -1.625,-1.335 -2.175,-1.775 -0.03,-1.12 -0.085,-2.24 -0.125,-3.35 -0.66,-0.24 -1.98,-0.725 -2.65,-0.975 0.29,-2.24 0.7,-4.47 1.3,-6.65 -1.36,0.46 -2.72999,0.94 -4.1,1.4 0.01,3.63 -0.66999,7.18 -1.7,10.65 -1.04,-1.08 -1.31,-2.525 -1.2,-3.975 0.02,-9.27 0.05,-18.555 0,-27.825 -0.35,-0.42 -1.05,-1.24 -1.4,-1.65 -0.16,-2.05 -0.37,-4.095 -0.65,-6.125 -0.55,-0.32 -1.65,-0.94 -2.2,-1.25 -0.17,-0.57 -0.505,-1.73 -0.675,-2.3 -1.23001,-0.5 -2.47,-1 -3.7,-1.5 0.01,-3.48 -0.03,-6.98 0.15,-10.45 3.18001,-4.81 -1.05999,-9.855 -3.15,-14.125 -0.03,-1.9 -0.095,-3.785 -0.175,-5.675 -1.51001,-0.94 -3.02999,-1.885 -4.55,-2.825 0.44,-2.28 0.82999,-4.56 1.2,-6.85 -0.71001,-0.71 -1.415,-1.44 -2.125,-2.15 -0.52001,-10.45 -1.45,-20.88 -1.7,-31.35 -0.03,-1.33 -0.35499,-2.6 -0.575,-3.9 1.90001,-1.39 4.375,-2.61 4.975,-5.1 0.81,-2.39 -0.795,-4.775 -1.775,-6.825 -1.29001,2.01 -0.355,4.39 -0.275,6.55 -0.59,1.48 -2.37499,1.765 -3.625,2.475 0.59,-1.33 1.26,-2.84 2.05,-4.05 -0.65,-1.7 -1.51,-3.38 -2.25,-5.05 -0.009,0.01546 -0.016,0.03449 -0.025,0.05 -0.009,-0.01551 -0.0156,-0.03454 -0.025,-0.05 z"
     id="rect3005"
     inkscape:connector-curvature="0" />
  <path
     fill="#fcfdfe"
     d=" M 325.50 178.66 C 355.71 148.38 386.05 118.24 416.26 87.96 C 453.40 125.30 477.86 175.35 483.23 227.84 C 487.99 270.88 480.12 315.21 461.01 354.06 C 443.91 389.04 417.94 419.63 386.24 442.22 C 355.61 464.20 319.57 478.67 282.18 483.66 C 228.13 491.29 171.62 478.75 125.70 449.28 C 111.42 440.19 98.17 429.52 86.11 417.65 C 103.27 400.57 120.38 383.44 137.52 366.34 C 137.52 371.61 137.51 376.87 137.53 382.14 C 169.22 382.14 200.92 382.17 232.62 382.12 C 232.64 393.56 232.63 405.00 232.62 416.43 C 273.11 416.44 313.61 416.47 354.10 416.42 C 354.10 404.99 354.10 393.57 354.11 382.14 C 383.96 382.14 413.81 382.15 443.67 382.14 C 443.66 325.45 443.69 268.77 443.65 212.09 C 413.80 212.14 383.95 212.10 354.10 212.11 C 354.10 200.97 354.10 189.83 354.10 178.69 C 344.57 178.64 335.03 178.70 325.50 178.66 Z"
     id="path10" />
  <path
     fill="#fcfdfe"
     d=" M 65.09 183.23 C 68.37 183.21 71.65 183.21 74.94 183.21 C 74.35 185.73 73.76 188.25 73.20 190.78 C 74.68 190.78 76.15 190.78 77.63 190.78 C 77.68 197.12 77.64 203.46 77.66 209.80 C 80.84 209.81 84.02 209.81 87.21 209.81 C 87.22 221.45 87.20 233.09 87.22 244.74 C 103.99 244.73 120.76 244.73 137.54 244.73 C 137.49 271.84 137.53 298.95 137.52 326.06 C 103.54 326.06 69.56 326.07 35.58 326.06 C 35.57 298.95 35.60 271.84 35.57 244.74 C 41.48 244.73 47.39 244.74 53.31 244.72 C 53.31 233.08 53.30 221.45 53.31 209.81 C 56.30 209.81 59.29 209.81 62.28 209.83 C 62.30 203.48 62.27 197.13 62.31 190.78 C 63.79 190.78 65.28 190.79 66.77 190.80 C 66.20 188.28 65.63 185.76 65.09 183.23 Z"
     id="path12" />
  <path
     fill="#fcfdfe"
     d=" M 238.11 183.93 C 274.94 183.90 311.77 184.00 348.60 183.94 C 348.67 195.13 348.61 206.33 348.63 217.53 C 378.55 217.54 408.47 217.52 438.39 217.53 C 438.37 270.59 438.38 323.65 438.39 376.70 C 408.47 376.72 378.55 376.70 348.64 376.71 C 348.59 388.22 348.69 399.73 348.58 411.23 C 311.75 411.20 274.93 411.22 238.10 411.22 C 238.01 399.72 238.08 388.22 238.06 376.72 C 206.35 376.70 174.65 376.72 142.94 376.71 C 142.93 323.65 142.94 270.59 142.94 217.53 C 174.64 217.52 206.35 217.55 238.06 217.52 C 238.09 206.32 238.00 195.12 238.11 183.93 Z"
     id="path14" />
  <path
     fill="#0462af"
     d=" M 245.30 191.28 C 277.49 191.27 309.68 191.26 341.87 191.29 C 341.85 202.47 341.86 213.65 341.87 224.83 C 371.75 224.80 401.63 224.83 431.51 224.82 C 431.46 273.21 431.53 321.60 431.48 369.99 C 401.61 369.92 371.73 369.98 341.86 369.96 C 341.87 381.40 341.84 392.84 341.88 404.27 C 309.68 404.29 277.49 404.28 245.29 404.28 C 245.32 392.84 245.30 381.40 245.30 369.96 C 213.60 369.95 181.89 369.97 150.18 369.95 C 150.15 321.58 150.22 273.20 150.14 224.83 C 181.86 224.82 213.58 224.80 245.30 224.84 C 245.31 213.65 245.31 202.47 245.30 191.28 Z"
     id="path16" />
  <path
     fill="#fcfdfe"
     d=" M 171.50 241.87 C 250.92 241.86 330.34 241.87 409.75 241.86 C 409.79 244.90 409.79 247.93 409.79 250.97 C 354.47 257.63 299.18 264.55 243.89 271.39 C 243.84 298.43 243.89 325.47 243.86 352.52 C 219.69 315.67 195.54 278.80 171.50 241.87 Z"
     id="path18" />
  <path
     fill="#fcfdfe"
     d=" M 341.35 274.94 C 364.22 272.15 387.02 268.88 409.81 265.46 C 409.77 285.95 409.81 306.44 409.79 326.94 C 386.97 326.96 364.16 326.93 341.35 326.95 C 341.33 309.62 341.33 292.28 341.35 274.94 Z"
     id="path20" />
  <path
     fill="#fcfdfe"
     d=" M 341.34 335.15 C 364.16 335.17 386.98 335.14 409.80 335.17 C 409.79 341.00 409.78 346.84 409.81 352.67 C 386.98 352.71 364.16 352.68 341.33 352.69 C 341.34 346.84 341.33 341.00 341.34 335.15 Z"
     id="path22" />
</svg>
